<svg width="256" height="51" viewBox="0 0 256 51" fill="none" xmlns="http://www.w3.org/2000/svg">
<rect width="50" height="50" fill="url(#paint0_linear_236_36)"/>
<circle cx="52" cy="25" r="25" fill="url(#paint1_radial_236_36)"/>
<path d="M80 0L108 50H52L80 0Z" fill="url(#paint2_linear_236_36)"/>
<path d="M113.013 41V10.4545H118.546V23.3857H132.7V10.4545H138.249V41H132.7V28.0241H118.546V41H113.013ZM171.561 25.7273C171.561 29.0185 170.944 31.8374 169.711 34.1839C168.488 36.5206 166.818 38.3104 164.7 39.5533C162.592 40.7962 160.201 41.4176 157.526 41.4176C154.851 41.4176 152.455 40.7962 150.337 39.5533C148.229 38.3004 146.559 36.5057 145.326 34.169C144.103 31.8224 143.491 29.0085 143.491 25.7273C143.491 22.4361 144.103 19.6222 145.326 17.2855C146.559 14.9389 148.229 13.1442 150.337 11.9013C152.455 10.6584 154.851 10.0369 157.526 10.0369C160.201 10.0369 162.592 10.6584 164.7 11.9013C166.818 13.1442 168.488 14.9389 169.711 17.2855C170.944 19.6222 171.561 22.4361 171.561 25.7273ZM165.998 25.7273C165.998 23.4105 165.635 21.4567 164.909 19.8658C164.193 18.2649 163.199 17.0568 161.926 16.2415C160.653 15.4162 159.186 15.0036 157.526 15.0036C155.865 15.0036 154.399 15.4162 153.126 16.2415C151.853 17.0568 150.854 18.2649 150.128 19.8658C149.412 21.4567 149.054 23.4105 149.054 25.7273C149.054 28.044 149.412 30.0028 150.128 31.6037C150.854 33.1946 151.853 34.4027 153.126 35.228C154.399 36.0433 155.865 36.451 157.526 36.451C159.186 36.451 160.653 36.0433 161.926 35.228C163.199 34.4027 164.193 33.1946 164.909 31.6037C165.635 30.0028 165.998 28.044 165.998 25.7273ZM179.074 41H173.168L183.921 10.4545H190.752L201.521 41H195.615L187.456 16.7188H187.218L179.074 41ZM179.268 29.0234H195.376V33.468H179.268V29.0234ZM205.544 41V10.4545H216.999C219.345 10.4545 221.314 10.8622 222.905 11.6776C224.506 12.4929 225.714 13.6364 226.529 15.108C227.354 16.5696 227.767 18.2749 227.767 20.2237C227.767 22.1825 227.349 23.8828 226.514 25.3246C225.689 26.7564 224.471 27.8651 222.86 28.6506C221.249 29.4261 219.271 29.8139 216.924 29.8139H208.766V25.2202H216.178C217.55 25.2202 218.674 25.0312 219.549 24.6534C220.424 24.2656 221.07 23.7038 221.488 22.968C221.915 22.2223 222.129 21.3075 222.129 20.2237C222.129 19.1399 221.915 18.2152 221.488 17.4496C221.06 16.674 220.409 16.0874 219.534 15.6896C218.659 15.282 217.531 15.0781 216.148 15.0781H211.077V41H205.544ZM221.324 27.1591L228.886 41H222.711L215.283 27.1591H221.324ZM232.86 41V10.4545H252.727V15.093H238.394V23.3857H251.698V28.0241H238.394V36.3615H252.846V41H232.86Z" fill="black"/>
<defs>
<linearGradient id="paint0_linear_236_36" x1="11" y1="5" x2="29.5" y2="50" gradientUnits="userSpaceOnUse">
<stop stop-color="#DC9020"/>
<stop offset="1" stop-color="#FFC700"/>
</linearGradient>
<radialGradient id="paint1_radial_236_36" cx="0" cy="0" r="1" gradientUnits="userSpaceOnUse" gradientTransform="translate(52 25) rotate(90) scale(25)">
<stop stop-color="#0085FF"/>
<stop offset="1" stop-color="#21A1C9"/>
</radialGradient>
<linearGradient id="paint2_linear_236_36" x1="52" y1="25" x2="105" y2="50" gradientUnits="userSpaceOnUse">
<stop stop-color="#C764A0"/>
<stop offset="1" stop-color="#A51FE4"/>
</linearGradient>
</defs>
</svg>
